<svg xmlns="http://www.w3.org/2000/svg" fill="none" viewBox="0 0 93 107"><path fill="#fff" d="m.035 83.877 46 22.666 46-22.666V.543h-92v83.334z"/><path fill="#fff" d="m.035 83.877 46 22.666 46-22.666V.543h-92v83.334z"/><path fill="#000" d="M12.83 13.33q-.37 0-.69-.09-.33-.09-.58-.25-.25-.17-.41-.37-.17-.2-.22-.43l.94-.28q.09.24.32.41.23.17.58.18.37.01.61-.16.23-.17.23-.43 0-.23-.18-.39-.19-.16-.51-.24l-.64-.17q-.35-.09-.63-.28-.27-.18-.42-.46-.16-.27-.16-.63 0-.7.46-1.09.46-.38 1.3-.38.47 0 .82.13.36.14.59.39.24.25.37.6l-.93.28q-.09-.24-.31-.4-.23-.17-.57-.17-.35 0-.55.16-.2.16-.2.46 0 .23.16.36.16.13.43.2l.64.16q.63.16.98.56t.35.89q0 .43-.21.75-.21.33-.6.51-.4.18-.97.18Zm3.3-.08v-4.9h1.82q.52 0 .92.21.4.2.62.57.23.37.23.85t-.22.85q-.22.37-.59.58-.38.22-.88.22h-.94v1.62Zm.96-2.51h.92q.32 0 .53-.21.2-.21.2-.55 0-.33-.22-.55-.23-.2-.59-.2h-.84Zm3.96 2.51v-4.9h1.82q.52 0 .92.2.4.21.62.56.23.35.23.82 0 .46-.24.82-.23.36-.64.56-.4.2-.92.2h-.83v1.74Zm2.7 0-1.13-1.97.73-.52 1.48 2.49Zm-1.74-2.61h.87q.22 0 .39-.09t.27-.25q.1-.16.1-.37 0-.31-.22-.51-.23-.19-.59-.19h-.82Zm4.26 2.61v-4.9h.96v4.9Zm2.72 0v-4.9h1l2.4 3.29V8.35h.95v4.9h-.95L29.95 9.9v3.35Zm8.39.08q-.75 0-1.33-.32-.58-.33-.9-.9-.33-.57-.33-1.31 0-.74.33-1.31.32-.57.9-.9.58-.32 1.33-.32.45 0 .82.13.38.13.67.37.29.23.49.53l-.78.49q-.12-.19-.32-.33-.19-.15-.42-.23-.23-.09-.46-.09-.46 0-.82.21-.36.22-.56.59-.2.37-.2.86 0 .48.2.86t.56.59q.36.22.84.22.37 0 .66-.15.29-.15.46-.41.17-.27.17-.62l.91-.14q0 .69-.29 1.18-.28.49-.78.75-.5.25-1.15.25Zm.16-1.96v-.74h2.06v.59l-.52.15Zm5.66 1.88v-.71q0-.2.12-.44.13-.25.35-.49.23-.25.53-.46l.74-.53q.15-.11.29-.24.14-.13.22-.29.09-.16.09-.3 0-.19-.09-.33-.08-.15-.25-.23-.17-.09-.42-.09-.21 0-.37.09-.16.08-.27.22-.1.14-.15.3l-.98-.17q.07-.35.3-.65.23-.3.6-.49.38-.18.85-.18.55 0 .94.2.39.19.61.53.21.34.21.79t-.25.81q-.25.35-.68.66l-.67.48q-.2.14-.35.31-.14.17-.22.37h2.23v.84Zm6.66.08q-.6 0-1.05-.32-.46-.33-.71-.9-.26-.57-.26-1.31 0-.74.26-1.31.25-.57.71-.9.45-.32 1.04-.32.6 0 1.06.32.45.33.71.9.26.57.26 1.31 0 .74-.26 1.31-.26.57-.71.9-.46.32-1.05.32Zm0-.86q.31 0 .56-.22.25-.21.39-.59.14-.37.14-.86t-.14-.87q-.14-.38-.39-.59-.25-.21-.57-.21-.31 0-.56.21-.24.21-.38.59t-.14.87q0 .49.14.86.14.38.39.59.24.22.56.22Zm3.32.78v-.71q0-.2.13-.44.13-.25.35-.49.22-.25.53-.46l.74-.53q.15-.11.29-.24.13-.13.22-.29.09-.16.09-.3 0-.19-.09-.33-.09-.15-.25-.23-.17-.09-.42-.09-.21 0-.37.09-.17.08-.27.22-.11.14-.15.3L53 9.58q.07-.35.3-.65.23-.3.6-.49.38-.18.85-.18.55 0 .94.2.39.19.61.53.21.34.21.79t-.25.81q-.25.35-.68.66l-.67.48q-.2.14-.35.31-.14.17-.22.37h2.23v.84Zm6.45.08q-.33 0-.69-.11-.35-.11-.63-.33-.29-.23-.42-.56l.87-.26q.16.23.37.33.21.11.45.11.36 0 .59-.22.22-.22.22-.59 0-.35-.22-.58-.22-.23-.58-.23-.22 0-.4.1-.18.1-.28.23l-.86-.19.29-2.68h2.78v.87h-1.96l-.14 1.17q.19-.1.42-.17.23-.06.5-.06.4 0 .73.2.33.19.52.52t.19.77q0 .5-.22.88-.23.38-.62.59-.39.21-.91.21Z" style="white-space:pre"/><g fill="#000" style="white-space:pre"><path d="M13.13 47.25v-7.7h5.02v1.63H14.9v1.41h2.72v1.57H14.9v1.46h3.3v1.63Zm9.54 0-.05-1.19v-1.55q0-.44-.07-.77-.08-.33-.28-.52-.2-.18-.59-.18-.31 0-.54.14-.23.14-.4.4l-1.49-.5q.18-.41.51-.74.32-.33.8-.52.47-.2 1.1-.2.85 0 1.45.32.59.32.89.89.3.57.3 1.35l-.03 3.07Zm-1.5.13q-.98 0-1.52-.44-.53-.44-.53-1.24 0-.87.56-1.3.56-.43 1.57-.43h1.51v1.1h-.86q-.55 0-.79.16-.25.15-.25.43 0 .19.19.31.18.11.5.11t.56-.13q.24-.14.38-.37.13-.23.13-.51h.43q0 1.1-.46 1.71-.46.6-1.42.6Zm6.24 0q-.54 0-1.01-.16-.46-.16-.81-.45-.34-.29-.5-.71l1.41-.59q.14.28.39.42.26.14.52.14.27 0 .43-.09.15-.1.15-.26 0-.18-.16-.28-.16-.1-.45-.17l-.48-.12q-.77-.2-1.18-.66-.41-.46-.41-1.06 0-.85.58-1.31.58-.46 1.62-.46.58 0 1.03.15.44.16.75.44.3.28.43.65l-1.36.56q-.08-.22-.32-.33-.23-.12-.52-.12-.24 0-.37.11-.14.1-.14.28 0 .13.16.22.16.1.47.17l.58.15q.52.13.87.4t.53.62q.18.36.18.77 0 .52-.31.89-.3.38-.84.59-.54.21-1.24.21Zm3.3-.13v-5.5h1.72v5.5Zm.86-6.2q-.39 0-.68-.3-.29-.29-.29-.67 0-.41.29-.69.29-.28.68-.28.39 0 .68.28.29.28.29.69 0 .38-.29.67-.29.3-.68.3Zm4.72 6.33q-.86 0-1.52-.37-.66-.36-1.04-1.01-.37-.65-.37-1.5 0-.86.38-1.51t1.04-1.01q.66-.36 1.53-.36.78 0 1.41.37.62.38.99 1.11.37.74.37 1.84h-4.14l.19-.21q0 .38.16.66.15.29.42.44.28.14.62.14.41 0 .69-.18.28-.18.39-.45l1.52.51q-.22.52-.62.86-.41.34-.92.51-.52.16-1.1.16Zm-1.11-3.36L35 43.8h2.46l-.15.22q0-.41-.17-.65-.16-.24-.4-.35-.24-.1-.49-.1-.24 0-.49.1-.24.11-.41.35-.17.24-.17.65Zm6.69 3.36q-.53 0-1-.16t-.81-.45q-.34-.29-.51-.71l1.41-.59q.14.28.4.42.25.14.51.14.28 0 .43-.09.16-.1.16-.26 0-.18-.16-.28-.16-.1-.46-.17l-.47-.12q-.77-.2-1.18-.66-.42-.46-.42-1.06 0-.85.59-1.31.58-.46 1.61-.46.59 0 1.03.15.45.16.75.44t.43.65l-1.36.56q-.08-.22-.31-.33-.24-.12-.53-.12-.24 0-.37.11-.13.1-.13.28 0 .13.16.22.16.1.47.17l.58.15q.52.13.87.4t.53.62q.17.36.17.77 0 .52-.3.89-.3.38-.84.59-.54.21-1.25.21Zm5.57 0q-.98 0-1.46-.47-.48-.46-.48-1.33v-5.55h1.72v5.12q0 .33.12.48.12.16.38.16.09 0 .23-.05.13-.05.24-.13l.59 1.26q-.26.22-.63.36-.37.15-.71.15Zm-2.79-4.19v-1.44h3.82v1.44Zm9.41 4.06v-6.07h-2.24v-1.63h6.25v1.63h-2.25v6.07Zm6.65.13q-.87 0-1.53-.37-.66-.36-1.04-1.01t-.38-1.5q0-.85.37-1.5.37-.64 1.03-1.01.67-.37 1.51-.37.87 0 1.54.37.66.37 1.03 1.01.37.65.37 1.5t-.37 1.5q-.37.65-1.03 1.01-.66.37-1.5.37Zm0-1.58q.33 0 .59-.17.25-.16.4-.45.15-.29.15-.68 0-.38-.15-.68-.15-.29-.41-.45-.26-.17-.61-.17-.34 0-.6.17-.26.16-.41.45-.15.3-.15.68 0 .39.15.68.15.29.42.45.26.17.62.17Zm6.5 1.45v-7.7h2.52q1.22 0 2.16.5.94.49 1.47 1.35.52.87.52 2 0 1.12-.52 1.99-.53.87-1.47 1.37-.94.49-2.16.49Zm1.77-1.67h.75q.5 0 .93-.16.43-.16.75-.45.32-.29.49-.7.18-.4.18-.87t-.18-.87q-.17-.41-.49-.7-.32-.29-.75-.45-.43-.16-.93-.16h-.75Zm8.46 1.8q-.87 0-1.53-.37-.66-.36-1.04-1.01t-.38-1.5q0-.85.37-1.5.37-.64 1.03-1.01.67-.37 1.51-.37.87 0 1.54.37.66.37 1.03 1.01.37.65.37 1.5t-.37 1.5q-.37.65-1.03 1.01-.66.37-1.5.37Zm0-1.58q.33 0 .59-.17.25-.16.4-.45.15-.29.15-.68 0-.38-.15-.68-.15-.29-.41-.45-.26-.17-.6-.17-.35 0-.61.17-.26.16-.41.45-.15.3-.15.68 0 .39.15.68.15.29.42.45.27.17.62.17ZM11.36 58.25v-7.7h2.7q.79 0 1.39.24.61.24.95.74.34.49.34 1.25 0 .41-.22.77-.21.36-.58.64.52.28.8.72.29.45.29 1.1 0 .72-.33 1.22t-.92.76q-.58.26-1.36.26Zm1.73-1.56h1.13q.45 0 .72-.24.26-.23.26-.61 0-.39-.28-.62-.27-.23-.75-.23h-1.08Zm0-3.11H14q.42 0 .67-.22.25-.21.25-.6t-.27-.61q-.26-.21-.72-.21h-.84Zm8.39 4.67-.1-1.01v-4.49h1.72v5.5Zm-3.64-2.68v-2.82h1.72v2.82Zm1.72 0q0 .43.09.69.1.26.29.38.19.13.44.14.5 0 .75-.28t.25-.85h.52q0 .87-.27 1.48-.26.61-.72.93-.45.32-1.06.32-.66 0-1.11-.27-.45-.27-.68-.82-.22-.55-.22-1.4v-.32Zm6.73 2.81q-.54 0-1.01-.16t-.81-.45q-.34-.29-.5-.71l1.4-.59q.15.28.4.42.25.14.52.14t.43-.09q.15-.1.15-.26 0-.18-.16-.28-.16-.1-.46-.17l-.47-.12q-.77-.2-1.18-.66-.41-.46-.41-1.06 0-.85.58-1.31.58-.46 1.62-.46.58 0 1.02.15.45.16.75.44.31.28.44.65l-1.37.56q-.07-.22-.31-.33-.24-.12-.52-.12-.24 0-.38.11-.13.1-.13.28 0 .13.16.22.16.1.47.17l.58.15q.52.13.87.4t.53.62q.17.36.17.77 0 .52-.3.89-.3.38-.84.59-.54.21-1.24.21Zm3.3-.13v-5.5h1.71v5.5Zm.86-6.2q-.39 0-.68-.3-.29-.29-.29-.67 0-.41.29-.69.29-.28.68-.28.39 0 .68.28.28.28.28.69 0 .38-.28.67-.29.3-.68.3Zm2.07 6.2v-5.5h1.62l.1 1.01v4.49Zm3.55 0v-2.82h1.71v2.82Zm0-2.82q0-.44-.1-.69-.1-.26-.28-.38-.18-.12-.45-.14-.49-.01-.75.27-.25.28-.25.86h-.52q0-.87.27-1.48.26-.61.72-.93.45-.32 1.06-.32.66 0 1.11.27.45.27.68.82.22.55.22 1.41v.31Zm5.4 2.95q-.86 0-1.52-.37-.66-.36-1.03-1.01-.38-.65-.38-1.5 0-.86.38-1.51t1.04-1.01q.66-.36 1.53-.36.78 0 1.41.37.62.38.99 1.11.37.74.37 1.84h-4.13l.18-.21q0 .38.16.66.15.29.43.44.27.14.61.14.41 0 .69-.18.28-.18.39-.45l1.52.51q-.22.52-.62.86-.41.34-.92.51-.52.16-1.1.16Zm-1.11-3.36-.18-.22h2.46l-.15.22q0-.41-.16-.65-.17-.24-.41-.35-.24-.1-.49-.1-.24 0-.49.1-.24.11-.41.35-.17.24-.17.65Zm6.7 3.36q-.54 0-1.01-.16t-.81-.45q-.34-.29-.51-.71l1.41-.59q.15.28.4.42.25.14.52.14t.42-.09q.16-.1.16-.26 0-.18-.16-.28-.16-.1-.46-.17l-.47-.12q-.77-.2-1.18-.66-.42-.46-.42-1.06 0-.85.59-1.31.58-.46 1.61-.46.59 0 1.03.15.45.16.75.44t.44.65l-1.37.56q-.08-.22-.31-.33-.24-.12-.52-.12-.25 0-.38.11-.13.1-.13.28 0 .13.16.22.16.1.47.17l.58.15q.52.13.87.4t.53.62q.17.36.17.77 0 .52-.3.89-.3.38-.84.59-.54.21-1.24.21Zm5.24 0q-.54 0-1-.16-.47-.16-.81-.45-.34-.29-.51-.71l1.41-.59q.14.28.4.42.25.14.51.14.28 0 .43-.09.16-.1.16-.26 0-.18-.16-.28-.16-.1-.46-.17l-.47-.12q-.77-.2-1.19-.66-.41-.46-.41-1.06 0-.85.58-1.31.59-.46 1.62-.46.58 0 1.03.15.45.16.75.44t.43.65l-1.36.56q-.08-.22-.32-.33-.23-.12-.52-.12-.24 0-.37.11-.13.1-.13.28 0 .13.16.22.16.1.46.17l.59.15q.51.13.87.4.35.27.52.62.18.36.18.77 0 .52-.3.89-.31.38-.84.59-.54.21-1.25.21Zm12.16-.13 2.13-7.7h1.81l-2.26 7.7Zm-4.61 0-2.25-7.7h1.81l2.12 7.7Zm.24 0 2.02-7.7h1.59l-2.01 7.7Zm4.2 0-2-7.7h1.58l2.11 7.7Zm4.84 0v-5.5h1.72v5.5Zm.86-6.2q-.38 0-.68-.3-.29-.29-.29-.67 0-.41.29-.69.3-.28.68-.28.4 0 .68.28.29.28.29.69 0 .38-.29.67-.28.3-.68.3Zm4.44 6.33q-.97 0-1.45-.47-.48-.46-.48-1.33v-5.55h1.71v5.12q0 .33.13.48.12.16.37.16.1 0 .23-.05t.24-.13l.6 1.26q-.27.22-.64.36-.36.15-.71.15Zm-2.79-4.19v-1.44h3.83v1.44Zm5.01 4.06v-7.7h1.71v7.7Zm3.54 0v-2.82h1.71v2.82Zm0-2.82q0-.44-.1-.69-.1-.26-.29-.38-.18-.12-.44-.14-.49-.01-.75.27-.25.28-.25.86h-.52q0-.87.27-1.48.26-.61.72-.93.46-.32 1.05-.32.67 0 1.12.27.45.27.68.82.22.55.22 1.41v.31Z"/></g><path fill="#FF492C" d="M71.035.543h21v21h-21z"/><g clip-path="url(#a)"><path fill="#fff" fill-rule="evenodd" d="M86.086 8.585h-1.794c.049-.281.222-.438.574-.616l.331-.168c.591-.303.906-.644.906-1.2a.972.972 0 0 0-.407-.828c-.266-.2-.591-.298-.965-.298a1.5 1.5 0 0 0-.819.233 1.383 1.383 0 0 0-.542.59l.52.519c.201-.406.494-.606.879-.606.325 0 .526.168.526.4 0 .195-.098.357-.472.546l-.211.103c-.461.233-.781.498-.965.8-.185.298-.277.682-.277 1.142v.124h2.716v-.74zm-.245 1.6h-2.966l-1.483 2.57h2.966l1.483 2.57 1.484-2.57-1.484-2.57z" clip-rule="evenodd"/><path fill="#fff" fill-rule="evenodd" d="M81.644 14.472a3.433 3.433 0 0 1-3.43-3.428 3.433 3.433 0 0 1 3.43-3.427l1.174-2.456a6 6 0 0 0-7.176 5.883 6 6 0 0 0 6.002 5.999 5.978 5.978 0 0 0 3.535-1.15l-1.3-2.252a3.417 3.417 0 0 1-2.235.831z" clip-rule="evenodd"/><path stroke="#000" stroke-width="1.085" d="M71.524 1.21v19.868"/></g><path fill="#27D3BC" d="M.035 84.063v-6.5l46 23.042 46-23.042v6.5l-46 22.48-46-22.48z"/><path fill="#FFF" d="M.035 78.109v-6.5l46 23.042 46-23.042v6.5l-46 22.48-46-22.48z"/><path fill="#FFF" d="M.035 72.174v-6.5l46 23.043 46-23.043v6.5l-46 22.48-46-22.48z"/><path stroke="#000" stroke-width="1.085" d="m91.492 83.54-45.457 22.398L.578 83.54V1.086h90.914V83.54zm.118-62.462H.66"/><defs><clipPath id="a"><path fill="#fff" d="M0 0h21v21H0z" transform="translate(71.035 .543)"/></clipPath></defs></svg>
