<svg width="73" height="81" viewBox="0 0 73 81" fill="none" xmlns="http://www.w3.org/2000/svg">
<rect width="73" height="81" rx="12" fill="#4F53DE"/>
<rect width="73" height="35" transform="translate(0 46)" fill="#1A202C"/>
<g clip-path="url(#clip0_182_100)">
<path fill-rule="evenodd" clip-rule="evenodd" d="M39.4896 21.8896H40.0406C40.649 21.8896 41.1427 22.4001 41.1427 23.0292V27.5877C41.1427 28.2168 40.649 28.7273 40.0406 28.7273H31.959C31.3506 28.7273 30.8569 28.2168 30.8569 27.5877V23.0292C30.8569 22.4001 31.3506 21.8896 31.959 21.8896H32.51V20.1802C32.51 18.1906 34.0758 16.5714 35.9998 16.5714C37.9238 16.5714 39.4896 18.1906 39.4896 20.1802V21.8896ZM34.3467 20.1802V21.8896H37.6529V20.1802C37.6529 19.2377 36.9113 18.4708 35.9998 18.4708C35.0883 18.4708 34.3467 19.2377 34.3467 20.1802Z" fill="white"/>
<path d="M36 5L36.5831 6.88738H38.4705L36.9437 8.0538L37.5268 9.94118L36 8.77401L34.4734 9.94118L35.0567 8.0538L33.5293 6.88738H35.4167L36 5Z" fill="#F8D12E"/>
<path d="M36 36.0588L36.5831 37.9468H38.4705L36.9437 39.113L37.5268 41L36 39.8339L34.4734 41L35.0567 39.113L33.5293 37.9468H35.4167L36 36.0588Z" fill="#F8D12E"/>
<path d="M43.7645 7.82349L44.3474 9.71084H46.2351L44.7079 10.8777L45.2913 12.7647L43.7645 11.5978L42.2374 12.7647L42.8207 10.8777L41.2939 9.71084H43.1816L43.7645 7.82349Z" fill="#F8D12E"/>
<path d="M50.0422 28.1429L50.625 30.0309H52.5125L50.9855 31.1972L51.5691 33.084L50.0422 31.9181L48.5151 33.084L49.0984 31.1972L47.5713 30.0309H49.4589L50.0422 28.1429Z" fill="#F8D12E"/>
<path d="M51.5294 20.5294L52.1122 22.4166H53.9998L52.4728 23.583L53.056 25.4706L51.5294 24.3047L50.0024 25.4706L50.586 23.583L49.0586 22.4166H50.9458L51.5294 20.5294Z" fill="#F8D12E"/>
<path d="M20.4709 20.5294L21.0539 22.4166H22.9412L21.4141 23.583L21.9977 25.4706L20.4709 24.3047L18.9438 25.4706L19.5271 23.583L18 22.4166H19.8876L20.4709 20.5294Z" fill="#F8D12E"/>
<path d="M21.7566 28.1429L22.3395 30.0309H24.2268L22.7001 31.1972L23.283 33.084L21.7566 31.9181L20.2295 33.084L20.8127 31.1972L19.2856 30.0309H21.1734L21.7566 28.1429Z" fill="#F8D12E"/>
<path d="M50.0422 12.7142L50.625 14.6022H52.5125L50.9855 15.7685L51.5691 17.6554L50.0422 16.4895L48.5151 17.6554L49.0984 15.7685L47.5713 14.6022H49.4589L50.0422 12.7142Z" fill="#F8D12E"/>
<path d="M22.3997 12.7142L22.9826 14.6022H24.8699L23.3432 15.7685L23.926 17.6554L22.3997 16.4895L20.8726 17.6554L21.4558 15.7685L19.9287 14.6022H21.8164L22.3997 12.7142Z" fill="#F8D12E"/>
<path d="M45.1768 34.6471L45.7597 36.5342H47.6473L46.1199 37.7011L46.7035 39.5882L45.1768 38.422L43.6495 39.5882L44.2332 37.7011L42.7061 36.5342H44.5936L45.1768 34.6471Z" fill="#F8D12E"/>
<path d="M28.2352 7.82349L28.8181 9.71084H30.7058L29.1787 10.8777L29.7623 12.7647L28.2352 11.5978L26.7085 12.7647L27.2917 10.8777L25.7646 9.71084H27.6519L28.2352 7.82349Z" fill="#F8D12E"/>
<path d="M26.8235 34.6471L27.4066 36.5351H29.2942L27.7672 37.701L28.3504 39.5882L26.8235 38.4227L25.2968 39.5882L25.88 37.701L24.353 36.5351H26.2402L26.8235 34.6471Z" fill="#F8D12E"/>
</g>
<path d="M26.2935 56.0938C26.2338 55.8864 26.15 55.7031 26.0421 55.544C25.9341 55.3821 25.802 55.2457 25.6458 55.1349C25.4924 55.0213 25.3162 54.9347 25.1174 54.875C24.9213 54.8153 24.704 54.7855 24.4654 54.7855C24.0194 54.7855 23.6273 54.8963 23.2892 55.1179C22.954 55.3395 22.6926 55.6619 22.5051 56.0852C22.3176 56.5057 22.2239 57.0199 22.2239 57.6278C22.2239 58.2358 22.3162 58.7528 22.5009 59.179C22.6855 59.6051 22.9469 59.9304 23.285 60.1548C23.623 60.3764 24.0222 60.4872 24.4824 60.4872C24.9 60.4872 25.2566 60.4134 25.552 60.2656C25.8503 60.1151 26.0776 59.9034 26.2338 59.6307C26.3929 59.358 26.4725 59.0355 26.4725 58.6634L26.8475 58.7188H24.5975V57.3295H28.2495V58.429C28.2495 59.196 28.0875 59.8551 27.7637 60.4062C27.4398 60.9545 26.9938 61.3778 26.4256 61.6761C25.8574 61.9716 25.2069 62.1193 24.4739 62.1193C23.6557 62.1193 22.937 61.9389 22.3176 61.5781C21.6983 61.2145 21.2154 60.6989 20.8688 60.0312C20.525 59.3608 20.3532 58.5653 20.3532 57.6449C20.3532 56.9375 20.4554 56.3068 20.66 55.7528C20.8674 55.196 21.1571 54.7244 21.5293 54.3381C21.9015 53.9517 22.3347 53.6577 22.829 53.456C23.3233 53.2543 23.8588 53.1534 24.4355 53.1534C24.9299 53.1534 25.3901 53.2259 25.8162 53.3707C26.2424 53.5128 26.6202 53.7145 26.9498 53.9759C27.2821 54.2372 27.5534 54.5483 27.7637 54.9091C27.9739 55.267 28.1088 55.6619 28.1685 56.0938H26.2935ZM32.7292 62H29.6355V53.2727H32.7548C33.6326 53.2727 34.3883 53.4474 35.0218 53.7969C35.6554 54.1435 36.1426 54.642 36.4835 55.2926C36.8272 55.9432 36.9991 56.7216 36.9991 57.6278C36.9991 58.5369 36.8272 59.3182 36.4835 59.9716C36.1426 60.625 35.6525 61.1264 35.0133 61.4759C34.377 61.8253 33.6156 62 32.7292 62ZM31.4806 60.419H32.6525C33.198 60.419 33.6568 60.3224 34.0289 60.1293C34.4039 59.9332 34.6852 59.6307 34.8727 59.2216C35.063 58.8097 35.1582 58.2784 35.1582 57.6278C35.1582 56.983 35.063 56.456 34.8727 56.0469C34.6852 55.6378 34.4054 55.3366 34.0332 55.1435C33.661 54.9503 33.2022 54.8537 32.6568 54.8537H31.4806V60.419ZM38.3659 62V53.2727H41.8091C42.4711 53.2727 43.035 53.3991 43.5009 53.652C43.9668 53.902 44.3219 54.25 44.5662 54.696C44.8134 55.1392 44.937 55.6506 44.937 56.2301C44.937 56.8097 44.812 57.321 44.562 57.7642C44.312 58.2074 43.9498 58.5526 43.4753 58.7997C43.0037 59.0469 42.4327 59.1705 41.7623 59.1705H39.5676V57.6918H41.464C41.8191 57.6918 42.1117 57.6307 42.3418 57.5085C42.5748 57.3835 42.748 57.2116 42.8617 56.9929C42.9782 56.7713 43.0364 56.517 43.0364 56.2301C43.0364 55.9403 42.9782 55.6875 42.8617 55.4716C42.748 55.2528 42.5748 55.0838 42.3418 54.9645C42.1088 54.8423 41.8134 54.7812 41.4554 54.7812H40.2111V62H38.3659ZM46.1355 62V53.2727H49.5787C50.2377 53.2727 50.8002 53.3906 51.2662 53.6264C51.7349 53.8594 52.0914 54.1903 52.3358 54.6193C52.5829 55.0455 52.7065 55.5469 52.7065 56.1236C52.7065 56.7031 52.5815 57.2017 52.3315 57.6193C52.0815 58.0341 51.7193 58.3523 51.2449 58.5739C50.7733 58.7955 50.2022 58.9062 49.5318 58.9062H47.2264V57.4233H49.2335C49.5858 57.4233 49.8784 57.375 50.1113 57.2784C50.3443 57.1818 50.5176 57.0369 50.6312 56.8438C50.7477 56.6506 50.8059 56.4105 50.8059 56.1236C50.8059 55.8338 50.7477 55.5895 50.6312 55.3906C50.5176 55.1918 50.3429 55.0412 50.1071 54.9389C49.8741 54.8338 49.5801 54.7812 49.225 54.7812H47.9806V62H46.1355ZM50.8485 58.0284L53.0176 62H50.9806L48.8585 58.0284H50.8485Z" fill="white"/>
<path d="M18.9596 70.0923H17.8517C17.809 69.8556 17.7297 69.6473 17.6137 69.4673C17.4977 69.2874 17.3557 69.1347 17.1876 69.0092C17.0195 68.8838 16.8313 68.7891 16.623 68.7251C16.417 68.6612 16.198 68.6293 15.966 68.6293C15.547 68.6293 15.1717 68.7346 14.8403 68.9453C14.5112 69.156 14.2508 69.465 14.059 69.8722C13.8696 70.2794 13.7749 70.7765 13.7749 71.3636C13.7749 71.9555 13.8696 72.455 14.059 72.8622C14.2508 73.2694 14.5124 73.5772 14.8438 73.7855C15.1753 73.9938 15.5481 74.098 15.9624 74.098C16.1921 74.098 16.4099 74.0672 16.6159 74.0057C16.8242 73.9418 17.0124 73.8482 17.1805 73.7251C17.3486 73.602 17.4906 73.4517 17.6066 73.2741C17.725 73.0942 17.8067 72.8883 17.8517 72.6562L18.9596 72.6598C18.9004 73.0173 18.7856 73.3464 18.6151 73.647C18.4471 73.9453 18.2304 74.2034 17.9653 74.4212C17.7025 74.6366 17.4018 74.8035 17.0633 74.9219C16.7248 75.0402 16.3554 75.0994 15.9553 75.0994C15.3256 75.0994 14.7645 74.9503 14.2721 74.652C13.7797 74.3513 13.3914 73.9216 13.1073 73.3629C12.8256 72.8042 12.6847 72.1378 12.6847 71.3636C12.6847 70.5871 12.8268 69.9207 13.1109 69.3643C13.395 68.8056 13.7832 68.3771 14.2757 68.0788C14.7681 67.7782 15.328 67.6278 15.9553 67.6278C16.3412 67.6278 16.7011 67.6835 17.0349 67.7947C17.3711 67.9036 17.6729 68.0646 17.9404 68.2777C18.2079 68.4884 18.4293 68.7464 18.6045 69.0518C18.7797 69.3549 18.8981 69.7017 18.9596 70.0923ZM22.485 75.1101C21.9736 75.1101 21.5274 74.9929 21.1462 74.7585C20.7651 74.5241 20.4691 74.1963 20.2584 73.7749C20.0477 73.3535 19.9424 72.861 19.9424 72.2976C19.9424 71.7318 20.0477 71.237 20.2584 70.8132C20.4691 70.3894 20.7651 70.0604 21.1462 69.826C21.5274 69.5916 21.9736 69.4744 22.485 69.4744C22.9964 69.4744 23.4426 69.5916 23.8238 69.826C24.2049 70.0604 24.5009 70.3894 24.7116 70.8132C24.9223 71.237 25.0276 71.7318 25.0276 72.2976C25.0276 72.861 24.9223 73.3535 24.7116 73.7749C24.5009 74.1963 24.2049 74.5241 23.8238 74.7585C23.4426 74.9929 22.9964 75.1101 22.485 75.1101ZM22.4885 74.2188C22.82 74.2188 23.0946 74.1312 23.3124 73.956C23.5302 73.7808 23.6912 73.5476 23.7954 73.2564C23.9019 72.9652 23.9552 72.6444 23.9552 72.294C23.9552 71.946 23.9019 71.6264 23.7954 71.3352C23.6912 71.0417 23.5302 70.8061 23.3124 70.6286C23.0946 70.451 22.82 70.3622 22.4885 70.3622C22.1547 70.3622 21.8778 70.451 21.6576 70.6286C21.4398 70.8061 21.2776 71.0417 21.1711 71.3352C21.0669 71.6264 21.0148 71.946 21.0148 72.294C21.0148 72.6444 21.0669 72.9652 21.1711 73.2564C21.2776 73.5476 21.4398 73.7808 21.6576 73.956C21.8778 74.1312 22.1547 74.2188 22.4885 74.2188ZM26.2128 75V69.5455H27.232V70.4332H27.2994C27.4131 70.1326 27.5989 69.8982 27.857 69.7301C28.115 69.5597 28.424 69.4744 28.7838 69.4744C29.1484 69.4744 29.4538 69.5597 29.7 69.7301C29.9486 69.9006 30.1321 70.1349 30.2504 70.4332H30.3073C30.4375 70.142 30.6446 69.91 30.9287 69.7372C31.2128 69.562 31.5513 69.4744 31.9443 69.4744C32.4391 69.4744 32.8428 69.6295 33.1553 69.9396C33.4701 70.2498 33.6276 70.7173 33.6276 71.3423V75H32.5658V71.4418C32.5658 71.0724 32.4652 70.8049 32.2639 70.6392C32.0627 70.4735 31.8224 70.3906 31.5431 70.3906C31.1974 70.3906 30.9287 70.4972 30.7369 70.7102C30.5452 70.9209 30.4493 71.192 30.4493 71.5234V75H29.3911V71.3743C29.3911 71.0784 29.2987 70.8404 29.1141 70.6605C28.9294 70.4806 28.6891 70.3906 28.3932 70.3906C28.192 70.3906 28.0061 70.4439 27.8357 70.5504C27.6676 70.6546 27.5315 70.8002 27.4273 70.9872C27.3255 71.1742 27.2746 71.3909 27.2746 71.6371V75H26.2128ZM35.0507 77.0455V69.5455H36.0876V70.4297H36.1764C36.238 70.3161 36.3267 70.1847 36.4427 70.0355C36.5587 69.8864 36.7197 69.7562 36.9257 69.6449C37.1317 69.5312 37.4039 69.4744 37.7425 69.4744C38.1828 69.4744 38.5758 69.5857 38.9214 69.8082C39.2671 70.0308 39.5381 70.3516 39.7346 70.7706C39.9335 71.1896 40.0329 71.6939 40.0329 72.2834C40.0329 72.8729 39.9347 73.3783 39.7382 73.7997C39.5417 74.2187 39.2718 74.5419 38.9285 74.7692C38.5853 74.9941 38.1934 75.1065 37.7531 75.1065C37.4217 75.1065 37.1506 75.0509 36.9399 74.9396C36.7316 74.8284 36.5682 74.6982 36.4498 74.549C36.3315 74.3999 36.2403 74.2673 36.1764 74.1513H36.1125V77.0455H35.0507ZM36.0912 72.2727C36.0912 72.6562 36.1468 72.9924 36.2581 73.2812C36.3693 73.5701 36.5303 73.7962 36.741 73.9595C36.9517 74.1205 37.2098 74.201 37.5152 74.201C37.8324 74.201 38.0976 74.117 38.3106 73.9489C38.5237 73.7784 38.6847 73.5476 38.7936 73.2564C38.9049 72.9652 38.9605 72.6373 38.9605 72.2727C38.9605 71.9129 38.906 71.5897 38.7971 71.3033C38.6906 71.0168 38.5296 70.7907 38.3142 70.625C38.1011 70.4593 37.8348 70.3764 37.5152 70.3764C37.2074 70.3764 36.947 70.4557 36.7339 70.6143C36.5232 70.773 36.3634 70.9943 36.2545 71.2784C36.1456 71.5625 36.0912 71.8939 36.0912 72.2727ZM42.2844 67.7273V75H41.2226V67.7273H42.2844ZM43.7128 75V69.5455H44.7746V75H43.7128ZM44.249 68.7038C44.0644 68.7038 43.9057 68.6423 43.7732 68.5192C43.643 68.3937 43.5779 68.2446 43.5779 68.0717C43.5779 67.8965 43.643 67.7474 43.7732 67.6243C43.9057 67.4988 44.0644 67.4361 44.249 67.4361C44.4337 67.4361 44.5911 67.4988 44.7213 67.6243C44.8539 67.7474 44.9202 67.8965 44.9202 68.0717C44.9202 68.2446 44.8539 68.3937 44.7213 68.5192C44.5911 68.6423 44.4337 68.7038 44.249 68.7038ZM47.7904 75.1207C47.4448 75.1207 47.1323 75.0568 46.8529 74.929C46.5735 74.7988 46.3522 74.6106 46.1888 74.3643C46.0278 74.1181 45.9474 73.8163 45.9474 73.4588C45.9474 73.151 46.0065 72.8977 46.1249 72.6989C46.2433 72.5 46.4031 72.3426 46.6043 72.2266C46.8055 72.1106 47.0305 72.023 47.279 71.9638C47.5276 71.9046 47.7809 71.8596 48.039 71.8288C48.3657 71.791 48.6308 71.7602 48.8344 71.7365C49.038 71.7105 49.186 71.669 49.2783 71.6122C49.3706 71.5554 49.4168 71.4631 49.4168 71.3352V71.3104C49.4168 71.0002 49.3292 70.7599 49.154 70.5895C48.9812 70.419 48.7232 70.3338 48.3799 70.3338C48.0224 70.3338 47.7407 70.4131 47.5347 70.5717C47.3311 70.728 47.1903 70.902 47.1121 71.0938L46.1143 70.8665C46.2326 70.535 46.4055 70.2675 46.6327 70.0639C46.8624 69.858 47.1263 69.7088 47.4246 69.6165C47.7229 69.5218 48.0366 69.4744 48.3657 69.4744C48.5835 69.4744 48.8143 69.5005 49.0581 69.5526C49.3044 69.6023 49.534 69.6946 49.7471 69.8295C49.9625 69.9645 50.1389 70.1574 50.2762 70.4084C50.4135 70.657 50.4822 70.9801 50.4822 71.3778V75H49.4452V74.2543H49.4026C49.334 74.3916 49.231 74.5265 49.0937 74.6591C48.9564 74.7917 48.78 74.9018 48.5645 74.9893C48.3491 75.0769 48.0911 75.1207 47.7904 75.1207ZM48.0212 74.2685C48.3148 74.2685 48.5657 74.2105 48.7741 74.0945C48.9848 73.9785 49.1446 73.8269 49.2535 73.6399C49.3647 73.4505 49.4204 73.2481 49.4204 73.0327V72.3295C49.3825 72.3674 49.3091 72.4029 49.2002 72.4361C49.0937 72.4669 48.9717 72.4941 48.8344 72.5178C48.6971 72.5391 48.5634 72.5592 48.4331 72.5781C48.3029 72.5947 48.194 72.6089 48.1064 72.6207C47.9005 72.6468 47.7123 72.6906 47.5418 72.7521C47.3737 72.8137 47.2388 72.9025 47.137 73.0185C47.0376 73.1321 46.9878 73.2836 46.9878 73.473C46.9878 73.7358 47.0849 73.9347 47.279 74.0696C47.4732 74.2022 47.7206 74.2685 48.0212 74.2685ZM52.9582 71.7614V75H51.8964V69.5455H52.9156V70.4332H52.983C53.1085 70.1444 53.305 69.9124 53.5725 69.7372C53.8424 69.562 54.1821 69.4744 54.5917 69.4744C54.9634 69.4744 55.2889 69.5526 55.5683 69.7088C55.8476 69.8627 56.0642 70.0923 56.2181 70.3977C56.372 70.7031 56.449 71.0807 56.449 71.5305V75H55.3872V71.6584C55.3872 71.263 55.2842 70.9541 55.0782 70.7315C54.8722 70.5066 54.5893 70.3942 54.2295 70.3942C53.9833 70.3942 53.7643 70.4474 53.5725 70.554C53.3831 70.6605 53.2328 70.8168 53.1215 71.0227C53.0126 71.2263 52.9582 71.4725 52.9582 71.7614ZM60.4191 69.5455V70.3977H57.4397V69.5455H60.4191ZM58.2387 68.2386H59.3005V73.3984C59.3005 73.6044 59.3313 73.7595 59.3928 73.8636C59.4544 73.9654 59.5337 74.0353 59.6308 74.0732C59.7302 74.1087 59.8379 74.1264 59.9539 74.1264C60.0392 74.1264 60.1137 74.1205 60.1776 74.1087C60.2416 74.0968 60.2913 74.0874 60.3268 74.0803L60.5186 74.9574C60.457 74.9811 60.3694 75.0047 60.2558 75.0284C60.1421 75.0545 60.0001 75.0687 59.8296 75.071C59.5503 75.0758 59.2899 75.026 59.0484 74.9219C58.8069 74.8177 58.6116 74.6567 58.4624 74.4389C58.3133 74.2211 58.2387 73.9477 58.2387 73.6186V68.2386Z" fill="white"/>
<defs>
<clipPath id="clip0_182_100">
<rect width="36" height="36" fill="white" transform="translate(18 5)"/>
</clipPath>
</defs>
</svg>
