<svg width="36" height="36" viewBox="0 0 36 36" fill="none" xmlns="http://www.w3.org/2000/svg">
<path fill-rule="evenodd" clip-rule="evenodd" d="M21.4898 16.8896H22.0408C22.6492 16.8896 23.1429 17.4001 23.1429 18.0292V22.5877C23.1429 23.2168 22.6492 23.7273 22.0408 23.7273H13.9592C13.3508 23.7273 12.8571 23.2168 12.8571 22.5877V18.0292C12.8571 17.4001 13.3508 16.8896 13.9592 16.8896H14.5102V15.1802C14.5102 13.1906 16.076 11.5714 18 11.5714C19.924 11.5714 21.4898 13.1906 21.4898 15.1802V16.8896ZM16.3469 15.1802V16.8896H19.6531V15.1802C19.6531 14.2377 18.9115 13.4708 18 13.4708C17.0885 13.4708 16.3469 14.2377 16.3469 15.1802Z" fill="white"/>
<path d="M18.0001 0L18.5832 1.88738H20.4706L18.9438 3.0538L19.5269 4.94118L18.0001 3.77401L16.4735 4.94118L17.0568 3.0538L15.5294 1.88738H17.4168L18.0001 0Z" fill="#F8D12E"/>
<path d="M18.0001 31.0588L18.5832 32.9468H20.4706L18.9438 34.113L19.5269 36L18.0001 34.8339L16.4735 36L17.0568 34.113L15.5294 32.9468H17.4168L18.0001 31.0588Z" fill="#F8D12E"/>
<path d="M25.7647 2.82352L26.3476 4.71087H28.2353L26.7081 5.87776L27.2915 7.76469L25.7647 6.59781L24.2376 7.76469L24.8209 5.87776L23.2941 4.71087H25.1818L25.7647 2.82352Z" fill="#F8D12E"/>
<path d="M32.0423 23.1429L32.6251 25.0309H34.5126L32.9856 26.1972L33.5692 28.084L32.0423 26.9181L30.5152 28.084L31.0985 26.1972L29.5714 25.0309H31.459L32.0423 23.1429Z" fill="#F8D12E"/>
<path d="M33.5296 15.5294L34.1124 17.4166H36L34.473 18.583L35.0562 20.4706L33.5296 19.3047L32.0026 20.4706L32.5862 18.583L31.0588 17.4166H32.946L33.5296 15.5294Z" fill="#F8D12E"/>
<path d="M2.47094 15.5294L3.05387 17.4166H4.94118L3.41409 18.583L3.99773 20.4706L2.47094 19.3047L0.943753 20.4706L1.52709 18.583L0 17.4166H1.88761L2.47094 15.5294Z" fill="#F8D12E"/>
<path d="M3.75666 23.1429L4.33959 25.0309H6.2269L4.70021 26.1972L5.28304 28.084L3.75666 26.9181L2.22958 28.084L2.81281 26.1972L1.28572 25.0309H3.17343L3.75666 23.1429Z" fill="#F8D12E"/>
<path d="M32.0423 7.71429L32.6251 9.60229H34.5126L32.9856 10.7686L33.5692 12.6555L32.0423 11.4896L30.5152 12.6555L31.0985 10.7686L29.5714 9.60229H31.459L32.0423 7.71429Z" fill="#F8D12E"/>
<path d="M4.39952 7.71429L4.98245 9.60229H6.86975L5.34307 10.7686L5.9259 12.6555L4.39952 11.4896L2.87243 12.6555L3.45566 10.7686L1.92857 9.60229H3.81628L4.39952 7.71429Z" fill="#F8D12E"/>
<path d="M27.1766 29.6471L27.7595 31.5342H29.6471L28.1197 32.7011L28.7033 34.5882L27.1766 33.422L25.6493 34.5882L26.233 32.7011L24.7059 31.5342H26.5934L27.1766 29.6471Z" fill="#F8D12E"/>
<path d="M10.2353 2.82352L10.8182 4.71087H12.7059L11.1788 5.87776L11.7624 7.76469L10.2353 6.59781L8.70856 7.76469L9.2918 5.87776L7.76471 4.71087H9.65201L10.2353 2.82352Z" fill="#F8D12E"/>
<path d="M8.82337 29.6471L9.40656 31.5351H11.2941L9.76715 32.701L10.3503 34.5882L8.82337 33.4227L7.29671 34.5882L7.8799 32.701L6.35294 31.5351H8.24009L8.82337 29.6471Z" fill="#F8D12E"/>
</svg>
