<svg xmlns="http://www.w3.org/2000/svg" fill="none" viewBox="0 0 93 107"><path fill="#fff" d="m.035 83.877 46 22.666 46-22.666V.543h-92v83.334z"/><path fill="#fff" d="m.035 83.877 46 22.666 46-22.666V.543h-92v83.334z"/><path fill="#000" d="M12.83 13.33q-.37 0-.69-.09-.33-.09-.58-.25-.25-.17-.41-.37-.17-.2-.22-.43l.94-.28q.09.24.32.41.23.17.58.18.37.01.61-.16.23-.17.23-.43 0-.23-.18-.39-.19-.16-.51-.24l-.64-.17q-.35-.09-.63-.28-.27-.18-.42-.46-.16-.27-.16-.63 0-.7.46-1.09.46-.38 1.3-.38.47 0 .82.13.36.14.59.39.24.25.37.6l-.93.28q-.09-.24-.31-.4-.23-.17-.57-.17-.35 0-.55.16-.2.16-.2.46 0 .23.16.36.16.13.43.2l.64.16q.63.16.98.56t.35.89q0 .43-.21.75-.21.33-.6.51-.4.18-.97.18Zm3.3-.08v-4.9h1.82q.52 0 .92.21.4.2.62.57.23.37.23.85t-.22.85q-.22.37-.59.58-.38.22-.88.22h-.94v1.62Zm.96-2.51h.92q.32 0 .53-.21.2-.21.2-.55 0-.33-.22-.55-.23-.2-.59-.2h-.84Zm3.96 2.51v-4.9h1.82q.52 0 .92.2.4.21.62.56.23.35.23.82 0 .46-.24.82-.23.36-.64.56-.4.2-.92.2h-.83v1.74Zm2.7 0-1.13-1.97.73-.52 1.48 2.49Zm-1.74-2.61h.87q.22 0 .39-.09t.27-.25q.1-.16.1-.37 0-.31-.22-.51-.23-.19-.59-.19h-.82Zm4.26 2.61v-4.9h.96v4.9Zm2.72 0v-4.9h1l2.4 3.29V8.35h.95v4.9h-.95L29.95 9.9v3.35Zm8.39.08q-.75 0-1.33-.32-.58-.33-.9-.9-.33-.57-.33-1.31 0-.74.33-1.31.32-.57.9-.9.58-.32 1.33-.32.45 0 .82.13.38.13.67.37.29.23.49.53l-.78.49q-.12-.19-.32-.33-.19-.15-.42-.23-.23-.09-.46-.09-.46 0-.82.21-.36.22-.56.59-.2.37-.2.86 0 .48.2.86t.56.59q.36.22.84.22.37 0 .66-.15.29-.15.46-.41.17-.27.17-.62l.91-.14q0 .69-.29 1.18-.28.49-.78.75-.5.25-1.15.25Zm.16-1.96v-.74h2.06v.59l-.52.15Zm5.66 1.88v-.71q0-.2.12-.44.13-.25.35-.49.23-.25.53-.46l.74-.53q.15-.11.29-.24.14-.13.22-.29.09-.16.09-.3 0-.19-.09-.33-.08-.15-.25-.23-.17-.09-.42-.09-.21 0-.37.09-.16.08-.27.22-.1.14-.15.3l-.98-.17q.07-.35.3-.65.23-.3.6-.49.38-.18.85-.18.55 0 .94.2.39.19.61.53.21.34.21.79t-.25.81q-.25.35-.68.66l-.67.48q-.2.14-.35.31-.14.17-.22.37h2.23v.84Zm6.66.08q-.6 0-1.05-.32-.46-.33-.71-.9-.26-.57-.26-1.31 0-.74.26-1.31.25-.57.71-.9.45-.32 1.04-.32.6 0 1.06.32.45.33.71.9.26.57.26 1.31 0 .74-.26 1.31-.26.57-.71.9-.46.32-1.05.32Zm0-.86q.31 0 .56-.22.25-.21.39-.59.14-.37.14-.86t-.14-.87q-.14-.38-.39-.59-.25-.21-.57-.21-.31 0-.56.21-.24.21-.38.59t-.14.87q0 .49.14.86.14.38.39.59.24.22.56.22Zm3.32.78v-.71q0-.2.13-.44.13-.25.35-.49.22-.25.53-.46l.74-.53q.15-.11.29-.24.13-.13.22-.29.09-.16.09-.3 0-.19-.09-.33-.09-.15-.25-.23-.17-.09-.42-.09-.21 0-.37.09-.17.08-.27.22-.11.14-.15.3L53 9.58q.07-.35.3-.65.23-.3.6-.49.38-.18.85-.18.55 0 .94.2.39.19.61.53.21.34.21.79t-.25.81q-.25.35-.68.66l-.67.48q-.2.14-.35.31-.14.17-.22.37h2.23v.84Zm6.45.08q-.33 0-.69-.11-.35-.11-.63-.33-.29-.23-.42-.56l.87-.26q.16.23.37.33.21.11.45.11.36 0 .59-.22.22-.22.22-.59 0-.35-.22-.58-.22-.23-.58-.23-.22 0-.4.1-.18.1-.28.23l-.86-.19.29-2.68h2.78v.87h-1.96l-.14 1.17q.19-.1.42-.17.23-.06.5-.06.4 0 .73.2.33.19.52.52t.19.77q0 .5-.22.88-.23.38-.62.59-.39.21-.91.21Z" style="white-space:pre"/><g fill="#000" style="white-space:pre"><path d="M24.04 42.63q-.9 0-1.56-.34-.65-.34-1-.96-.35-.63-.35-1.49V35.5h1.61v4.34q0 .4.16.69.16.29.45.45.3.16.71.16.4 0 .7-.16.3-.16.46-.45.16-.29.16-.69V35.5h1.61v4.34q0 .86-.35 1.49-.36.62-1.02.96-.67.34-1.58.34Zm5.92-.01q-.49 0-.91-.14-.43-.15-.74-.41-.31-.27-.46-.65l1.28-.54q.13.26.36.39.23.12.47.12.25 0 .39-.08.14-.09.14-.24 0-.16-.14-.25-.15-.09-.42-.16l-.43-.11q-.7-.18-1.07-.59-.38-.42-.38-.97 0-.77.53-1.19.53-.42 1.47-.42.53 0 .94.14.4.14.68.4.27.25.39.59l-1.24.51q-.07-.2-.28-.31-.22-.1-.48-.1-.22 0-.34.1-.12.09-.12.25 0 .12.15.21.14.08.42.15l.53.13q.47.12.79.37.32.24.48.57.16.32.16.69 0 .47-.27.82-.28.34-.77.53t-1.13.19Zm5.31 0q-.78 0-1.38-.33-.6-.34-.94-.93-.34-.59-.34-1.36 0-.78.35-1.37.34-.59.94-.92.6-.33 1.39-.33.71 0 1.28.34.57.34.91 1.01.33.67.33 1.67h-3.76l.17-.19q0 .34.14.6.14.26.39.4.25.13.56.13.37 0 .63-.16.25-.17.35-.42l1.38.47q-.2.47-.57.78-.36.31-.83.46-.47.15-1 .15Zm-1.01-3.06-.16-.2h2.24l-.14.2q0-.37-.15-.59-.15-.22-.37-.31-.22-.1-.44-.1t-.44.1q-.23.09-.38.31-.16.22-.16.59Zm5.36.35q0-.81.33-1.35.32-.54.82-.81.49-.27 1.03-.27V39q-.46 0-.86.1-.41.1-.66.31-.25.2-.25.52Zm-1.15 2.59v-5h1.56v5Zm5.86.12q-.49 0-.91-.14-.43-.15-.74-.41-.31-.27-.46-.65l1.28-.54q.13.26.36.39.23.12.47.12.25 0 .39-.08.14-.09.14-.24 0-.16-.14-.25-.15-.09-.42-.16l-.43-.11q-.7-.18-1.08-.59-.37-.42-.37-.97 0-.77.53-1.19.53-.42 1.47-.42.53 0 .94.14.4.14.68.4.27.25.39.59l-1.24.51q-.07-.2-.29-.31-.21-.1-.47-.1-.22 0-.34.1-.12.09-.12.25 0 .12.14.21.15.08.43.15l.53.13q.47.12.79.37.32.24.48.57.16.32.16.69 0 .47-.28.82-.27.34-.76.53t-1.13.19Zm5.42-.12v-7h1.77l1.86 2.76 1.87-2.76h1.77v7h-1.61V38l-2.02 2.96L51.36 38v4.5Zm10.88.12q-.79 0-1.39-.33-.6-.34-.94-.93-.35-.59-.35-1.36 0-.77.34-1.36.33-.59.94-.92.6-.34 1.37-.34.79 0 1.4.33.6.34.94.93.33.59.33 1.36 0 .77-.33 1.36-.34.59-.94.93-.6.33-1.37.33Zm0-1.44q.3 0 .54-.15.23-.15.37-.41.13-.27.13-.62t-.13-.61q-.14-.27-.38-.42-.24-.15-.55-.15-.31 0-.55.15-.24.15-.37.42-.14.26-.14.61t.14.62q.13.26.38.41.24.15.56.15Zm5.28 1.44q-.49 0-.92-.14-.42-.15-.73-.41-.31-.27-.46-.65l1.28-.54q.13.26.36.39.23.12.47.12.25 0 .39-.08.14-.09.14-.24 0-.16-.14-.25-.15-.09-.42-.16l-.43-.11q-.7-.18-1.07-.59-.38-.42-.38-.97 0-.77.53-1.19.53-.42 1.47-.42.53 0 .94.14.4.14.67.4.28.25.4.59l-1.24.51q-.07-.2-.28-.31-.22-.1-.48-.1-.22 0-.34.1-.12.09-.12.25 0 .12.14.21.15.08.43.15l.53.13q.47.12.79.37.32.24.48.57.16.32.16.69 0 .47-.28.82-.27.34-.76.53t-1.13.19Zm5.06 0q-.89 0-1.32-.42-.44-.43-.44-1.22v-5.04h1.56v4.65q0 .3.11.44t.34.14q.09 0 .21-.04.12-.05.22-.12l.54 1.14q-.24.2-.57.34-.34.13-.65.13Zm-2.54-3.81V37.5h3.48v1.31ZM26.61 52.5v-7h1.61v5.52h2.98v1.48Zm5.37 0v-5h1.56v5Zm.78-5.64q-.35 0-.61-.26-.27-.27-.27-.62 0-.37.27-.62.26-.26.61-.26.36 0 .62.26.26.25.26.62 0 .35-.26.62-.26.26-.62.26Zm3.37 4.53-.92-1.08 2.51-2.81h1.83Zm-1.48 1.11v-7h1.56v7Zm3.22 0-1.55-2.21 1.02-1.07 2.34 3.28Zm4.47.12q-.78 0-1.38-.33-.6-.34-.94-.93-.34-.59-.34-1.36 0-.78.35-1.37.34-.59.94-.92.6-.33 1.39-.33.71 0 1.28.34.57.34.91 1.01.33.67.33 1.67h-3.76l.17-.19q0 .34.14.6.14.26.39.4.25.13.56.13.37 0 .63-.16.25-.17.35-.42l1.38.47q-.2.47-.56.78-.37.31-.84.46-.47.15-1 .15Zm-1.01-3.06-.16-.2h2.24l-.14.2q0-.37-.15-.59-.15-.22-.37-.31-.22-.1-.44-.1t-.44.1q-.23.09-.38.31-.16.22-.16.59Zm4.21 2.94v-7h1.56v7Zm3.84 2.12q-.32 0-.67-.12-.36-.12-.6-.26l.58-1.27q.14.1.28.15.13.05.24.05.19 0 .34-.09.15-.1.24-.31l.59-1.39 1.47-3.88h1.73l-2.21 5.3q-.22.54-.46.95-.24.41-.59.64-.36.23-.94.23Zm.59-2.12-2.34-5h1.73l1.57 3.88.53 1.12Zm8.17 0v-5.52H56.1V45.5h5.68v1.48h-2.04v5.52Zm6.04.12q-.79 0-1.39-.33-.6-.34-.94-.93-.35-.59-.35-1.36 0-.77.34-1.36.33-.59.94-.92.6-.34 1.37-.34.79 0 1.4.34.6.33.94.92.33.59.33 1.36 0 .77-.33 1.36-.34.59-.94.93-.6.33-1.37.33Zm0-1.44q.3 0 .54-.15.23-.15.36-.41.14-.27.14-.62t-.14-.61q-.13-.27-.37-.42-.24-.15-.55-.15-.31 0-.55.15-.24.15-.37.42-.14.26-.14.61t.14.62q.13.26.38.41.24.15.56.15ZM17.99 62.5v-7h2.75q.75 0 1.35.3.58.29.92.82.34.52.34 1.2 0 .68-.34 1.21-.34.53-.94.83-.59.29-1.36.29H19.6v2.35Zm3.8 0-1.59-2.78 1.22-.89 2.21 3.67Zm-2.19-3.83h1.09q.28 0 .5-.11.21-.11.34-.3.13-.2.13-.44 0-.37-.28-.61-.27-.24-.73-.24H19.6Zm7.16 3.95q-.78 0-1.38-.33-.6-.34-.94-.93-.34-.59-.34-1.36 0-.78.34-1.37.34-.59.95-.92.6-.33 1.39-.33.71 0 1.28.34.57.34.9 1.01.34.67.34 1.67h-3.76l.17-.19q0 .34.14.6.14.26.39.4.25.13.56.13.37 0 .62-.16.25-.17.36-.42l1.38.47q-.2.47-.57.78-.36.31-.83.46-.47.15-1 .15Zm-1.02-3.06-.16-.2h2.25l-.14.2q0-.37-.16-.59-.14-.22-.36-.31-.22-.1-.44-.1t-.45.1q-.22.09-.38.31t-.16.59Zm6.71 3.06q-.8 0-1.43-.33-.62-.34-.97-.93-.35-.6-.35-1.36 0-.77.35-1.36.35-.59.96-.92.62-.34 1.41-.34.78 0 1.42.39.64.39.92 1.13l-1.48.5q-.11-.24-.37-.39-.25-.16-.56-.16-.32 0-.55.15-.23.14-.37.4-.13.26-.13.6 0 .34.13.6.14.25.38.4.25.15.56.15.3 0 .55-.16.25-.16.38-.42l1.48.5q-.29.75-.93 1.15-.63.4-1.4.4Zm5.41 0q-.79 0-1.39-.33-.6-.34-.95-.93-.34-.59-.34-1.36 0-.77.33-1.36.34-.59.94-.92.61-.34 1.38-.34.79 0 1.39.34.61.33.94.92.34.59.34 1.36 0 .77-.34 1.36-.33.59-.93.93-.6.33-1.37.33Zm0-1.44q.3 0 .53-.15.24-.15.37-.41.14-.27.14-.62t-.14-.61q-.13-.27-.37-.42-.24-.15-.55-.15-.31 0-.55.15-.24.15-.38.42-.13.26-.13.61t.13.62q.14.26.38.41.25.15.57.15Zm3.4 1.32v-5h1.46l.07.63q.24-.37.59-.56.36-.19.79-.19.62 0 1.02.26.41.25.6.77.23-.5.63-.76.4-.27.9-.27.9 0 1.35.55.46.55.44 1.71v2.86h-1.55v-2.56q0-.4-.09-.63-.08-.24-.25-.35-.15-.11-.37-.12-.43-.01-.66.25-.22.25-.22.77v2.64h-1.56l-.01-2.56q0-.4-.08-.63-.08-.24-.24-.35-.16-.11-.38-.12-.43-.01-.66.25-.22.25-.22.77v2.64Zm8.81 0v-5h1.47l.06.63q.24-.37.59-.56.36-.19.79-.19.62 0 1.02.26.41.25.6.77.23-.5.63-.76.4-.27.9-.27.9 0 1.35.55.46.55.45 1.71v2.86h-1.56v-2.56q0-.4-.09-.63-.08-.24-.24-.35-.16-.11-.38-.12-.43-.01-.66.25-.22.25-.22.77v2.64h-1.56v-2.56q0-.4-.09-.63-.08-.24-.24-.35-.16-.11-.38-.12-.43-.01-.66.25-.22.25-.22.77v2.64Zm11.21.12q-.78 0-1.38-.33-.6-.34-.94-.93-.34-.59-.34-1.36 0-.78.34-1.37.35-.59.95-.92.6-.33 1.39-.33.71 0 1.28.34.57.34.9 1.01.34.67.34 1.67h-3.76l.17-.19q0 .34.14.6.14.26.39.4.25.13.56.13.37 0 .62-.16.26-.17.36-.42l1.38.47q-.2.47-.57.78-.36.31-.83.46-.47.15-1 .15Zm-1.01-3.06-.16-.2h2.24l-.14.2q0-.37-.15-.59-.15-.22-.37-.31-.22-.1-.44-.1t-.45.1q-.22.09-.38.31-.15.22-.15.59Zm4.2 2.94v-5h1.47l.1.92v4.08Zm3.22 0v-2.56h1.57v2.56Zm0-2.56q0-.4-.09-.63-.08-.24-.25-.35-.16-.11-.41-.12-.45-.01-.67.25-.23.25-.23.77h-.47q0-.79.23-1.34.25-.56.66-.85.42-.29.97-.29.59 0 1.01.25.41.24.61.74.21.5.21 1.28v.29Zm6 2.56-.06-.93-.01-6.07h1.56v7Zm-1.48.12q-.7 0-1.21-.31-.51-.32-.78-.91-.28-.59-.28-1.4 0-.82.28-1.4.27-.59.78-.9.51-.32 1.21-.32.61 0 1.04.32.43.31.63.9.22.58.22 1.4 0 .81-.22 1.4-.2.59-.63.91-.43.31-1.04.31Zm.4-1.44q.29 0 .52-.15.23-.15.36-.41.14-.27.14-.62t-.14-.61q-.13-.27-.36-.42-.23-.15-.53-.15-.3 0-.53.15-.22.15-.36.42-.14.26-.14.61t.14.62q.14.26.37.41.24.15.53.15Z"/></g><path fill="#000" d="M26.82 72.38v-3.85h.82l1.12 1.66 1.12-1.66h.82v3.85h-.75V69.7l-1.19 1.75-1.19-1.74v2.67Zm5.26 0v-3.85h.76v3.85Zm2.14 0v-3.85h1.23q.59 0 1.05.24.45.25.71.68.25.43.25 1 0 .56-.25 1-.26.43-.71.68-.46.25-1.05.25Zm.75-.71h.48q.27 0 .49-.09.23-.1.4-.26.16-.17.26-.39.09-.22.09-.48t-.09-.48q-.1-.22-.26-.39-.17-.16-.4-.26-.22-.09-.49-.09h-.48Zm3.53-.62v-.62h1.65v.62Zm2.92 1.33v-3.85h.81l1.13 1.66 1.12-1.66h.81v3.85h-.75V69.7l-1.18 1.75-1.19-1.74v2.67Zm7.93 0-1.48-3.85h.76l1.51 3.85Zm-3.05 0 1.52-3.85h.76l-1.48 3.85Zm.72-.85v-.67h2.41v.67Zm4.14.85v-3.85h1.43q.4 0 .72.15.31.16.49.44.17.28.17.65 0 .36-.18.64-.19.29-.51.44-.31.16-.72.16h-.65v1.37Zm2.11 0-.89-1.55.58-.41 1.17 1.96Zm-1.36-2.06h.68q.17 0 .31-.07.13-.07.21-.2.08-.12.08-.28 0-.25-.18-.4-.18-.16-.46-.16h-.64Zm3.79 1.08-.08-.94 1.8-1.93h.97Zm-.45.98v-3.85H56v3.85Zm2.27 0-1.53-1.96.54-.45 1.92 2.41Zm1.95 0v-3.85h2.43v.68h-1.68v.88h1.45v.67h-1.45v.93h1.7v.69Zm4.6 0v-3.17h-1.16v-.68h3.06v.68h-1.15v3.17Z" style="white-space:pre"/><path fill="#FF492C" d="M71.035.543h21v21h-21z"/><g clip-path="url(#a)"><path fill="#fff" fill-rule="evenodd" d="M86.086 8.585h-1.794c.049-.281.222-.438.574-.616l.331-.168c.591-.303.906-.644.906-1.2a.972.972 0 0 0-.407-.828c-.266-.2-.591-.298-.965-.298a1.5 1.5 0 0 0-.819.233 1.383 1.383 0 0 0-.542.59l.52.519c.201-.406.494-.606.879-.606.325 0 .526.168.526.4 0 .195-.098.357-.472.546l-.211.103c-.461.233-.781.498-.965.8-.185.298-.277.682-.277 1.142v.124h2.716v-.74zm-.245 1.6h-2.966l-1.483 2.57h2.966l1.483 2.57 1.484-2.57-1.484-2.57z" clip-rule="evenodd"/><path fill="#fff" fill-rule="evenodd" d="M81.644 14.472a3.433 3.433 0 0 1-3.43-3.428 3.433 3.433 0 0 1 3.43-3.427l1.174-2.456a6 6 0 0 0-7.176 5.883 6 6 0 0 0 6.002 5.999 5.978 5.978 0 0 0 3.535-1.15l-1.3-2.252a3.417 3.417 0 0 1-2.235.831z" clip-rule="evenodd"/><path stroke="#000" stroke-width="1.085" d="M71.524 1.21v19.868"/></g><path fill="#5746B2" d="M.035 84.063v-6.5l46 23.042 46-23.042v6.5l-46 22.48-46-22.48z"/><path fill="#FFF" d="M.035 78.109v-6.5l46 23.042 46-23.042v6.5l-46 22.48-46-22.48z"/><path fill="#FFF" d="M.035 72.174v-6.5l46 23.043 46-23.043v6.5l-46 22.48-46-22.48z"/><path stroke="#000" stroke-width="1.085" d="m91.492 83.54-45.457 22.398L.578 83.54V1.086h90.914V83.54zm.118-62.462H.66"/><defs><clipPath id="a"><path fill="#fff" d="M0 0h21v21H0z" transform="translate(71.035 .543)"/></clipPath></defs></svg>
